<svg version="1.1" xmlns="http://www.w3.org/2000/svg" viewBox="0 0 1066.3956522795913 991.4918853923953" width="2132.7913045591827" height="1982.9837707847905">
  <!-- svg-source:excalidraw -->
  
  <defs>
    <style class="style-fonts">
      @font-face {
        font-family: "Virgil";
        src: url("https://excalidraw.com/Virgil.woff2");
      }
      @font-face {
        font-family: "Cascadia";
        src: url("https://excalidraw.com/Cascadia.woff2");
      }
    </style>
    
  </defs>
  <rect x="0" y="0" width="1066.3956522795913" height="991.4918853923953" fill="#ffffff"></rect><g transform="translate(422.2971007027638 255.98432800042013) rotate(0 112.71192932128906 50)"><text x="0" y="0" font-family="Virgil, Segoe UI Emoji" font-size="16px" fill="#1e1e1e" text-anchor="start" style="white-space: pre;" direction="ltr" dominant-baseline="text-before-edge">For latest block components:</text><text x="0" y="20" font-family="Virgil, Segoe UI Emoji" font-size="16px" fill="#1e1e1e" text-anchor="start" style="white-space: pre;" direction="ltr" dominant-baseline="text-before-edge"></text><text x="0" y="40" font-family="Virgil, Segoe UI Emoji" font-size="16px" fill="#1e1e1e" text-anchor="start" style="white-space: pre;" direction="ltr" dominant-baseline="text-before-edge">1. get the latest 15 blocks</text><text x="0" y="60" font-family="Virgil, Segoe UI Emoji" font-size="16px" fill="#1e1e1e" text-anchor="start" style="white-space: pre;" direction="ltr" dominant-baseline="text-before-edge"></text><text x="0" y="80" font-family="Virgil, Segoe UI Emoji" font-size="16px" fill="#1e1e1e" text-anchor="start" style="white-space: pre;" direction="ltr" dominant-baseline="text-before-edge"></text></g><g stroke-linecap="round" transform="translate(81.79491008191076 252.14301387320234) rotate(0 121.45331431644456 99.27265433839483)"><path d="M32 0 M32 0 C69.81 1.75, 105.74 -0.18, 210.91 0 M32 0 C84.46 -2.01, 137.58 -0.3, 210.91 0 M210.91 0 C231.35 1.23, 243.33 9.38, 242.91 32 M210.91 0 C233.33 -1.86, 241.94 10.74, 242.91 32 M242.91 32 C244.49 64.16, 244.51 93.69, 242.91 166.55 M242.91 32 C242.35 70.25, 243.18 110.87, 242.91 166.55 M242.91 166.55 C241.14 188.45, 234.15 197.76, 210.91 198.55 M242.91 166.55 C243.23 186.83, 231.45 198.49, 210.91 198.55 M210.91 198.55 C175.6 198.67, 137.52 199.97, 32 198.55 M210.91 198.55 C169.28 200.6, 126.78 199.98, 32 198.55 M32 198.55 C11.44 199.57, 1.98 188.31, 0 166.55 M32 198.55 C9.16 196.92, 1.99 187.68, 0 166.55 M0 166.55 C-1.18 129.72, -1.85 97.95, 0 32 M0 166.55 C0.33 112.54, -0.51 60.77, 0 32 M0 32 C1.56 12.42, 12.4 -0.81, 32 0 M0 32 C-1.54 8.66, 12.33 0.52, 32 0" stroke="#1e1e1e" stroke-width="1" fill="none"></path></g><g transform="translate(102.77568244996087 230.78354986189174) rotate(0 56.49596405029297 10)"><text x="0" y="0" font-family="Virgil, Segoe UI Emoji" font-size="16px" fill="#1e1e1e" text-anchor="start" style="white-space: pre;" direction="ltr" dominant-baseline="text-before-edge">Latest Blocks</text></g><g stroke-linecap="round" transform="translate(101.36552682809554 275.12185540873224) rotate(0 100.68071774123666 13.483305497197705)"><path d="M6.74 0 M6.74 0 C74.59 -0.73, 138.96 0.48, 194.62 0 M6.74 0 C67.1 1.81, 125.53 1.33, 194.62 0 M194.62 0 C200.56 -1.17, 199.94 0.51, 201.36 6.74 M194.62 0 C198.55 -0.43, 201.52 0.67, 201.36 6.74 M201.36 6.74 C200.52 10.6, 200.4 14.04, 201.36 20.22 M201.36 6.74 C201.1 10.97, 201.64 15.07, 201.36 20.22 M201.36 20.22 C203.31 23.87, 197.33 27.81, 194.62 26.97 M201.36 20.22 C201.44 26.6, 200.3 28.17, 194.62 26.97 M194.62 26.97 C157.59 27.53, 115.77 27.56, 6.74 26.97 M194.62 26.97 C133.49 28.03, 73.1 29.33, 6.74 26.97 M6.74 26.97 C2.13 28.08, 0.71 25.93, 0 20.22 M6.74 26.97 C4.1 25.45, -1.02 26.43, 0 20.22 M0 20.22 C0.21 15.85, 1.41 10.2, 0 6.74 M0 20.22 C0.12 16.66, -0.21 12.12, 0 6.74 M0 6.74 C0.66 0.49, 1.12 -0.57, 6.74 0 M0 6.74 C-0.59 2.52, 1.55 1.97, 6.74 0" stroke="#1e1e1e" stroke-width="1" fill="none"></path></g><g transform="translate(110.71146920624483 280.55534821286324) rotate(0 63.815956115722656 10)"><text x="0" y="0" font-family="Virgil, Segoe UI Emoji" font-size="16px" fill="#1e1e1e" text-anchor="start" style="white-space: pre;" direction="ltr" dominant-baseline="text-before-edge">Block XXXX Info</text></g><g stroke-linecap="round" transform="translate(102.22438273725822 311.1111609421399) rotate(0 100.68071774123666 13.483305497197705)"><path d="M6.74 0 M6.74 0 C72.65 -0.06, 136.43 -0.32, 194.62 0 M6.74 0 C74.13 -1.73, 139.99 -0.64, 194.62 0 M194.62 0 C198.09 0.13, 202.25 3.73, 201.36 6.74 M194.62 0 C197.34 1.3, 203.65 3.68, 201.36 6.74 M201.36 6.74 C202.39 9.56, 202.27 14.66, 201.36 20.22 M201.36 6.74 C201.44 12.46, 200.88 16.73, 201.36 20.22 M201.36 20.22 C201.12 25.43, 197.75 25.35, 194.62 26.97 M201.36 20.22 C203.51 23.27, 197.48 25.45, 194.62 26.97 M194.62 26.97 C121.76 28.52, 47.93 27.25, 6.74 26.97 M194.62 26.97 C130.12 29.33, 66.13 28.62, 6.74 26.97 M6.74 26.97 C3.38 26.86, 0.96 26.41, 0 20.22 M6.74 26.97 C2.19 26.52, -1.53 23.23, 0 20.22 M0 20.22 C-0.01 15.31, 0.4 12.79, 0 6.74 M0 20.22 C-0.21 16.09, -0.17 11.56, 0 6.74 M0 6.74 C1.9 3.98, 2.45 -1.05, 6.74 0 M0 6.74 C1.67 4.52, 0.27 1.52, 6.74 0" stroke="#1e1e1e" stroke-width="1" fill="none"></path></g><g transform="translate(111.57032511540763 316.5446537462709) rotate(0 63.815956115722656 10)"><text x="0" y="0" font-family="Virgil, Segoe UI Emoji" font-size="16px" fill="#1e1e1e" text-anchor="start" style="white-space: pre;" direction="ltr" dominant-baseline="text-before-edge">Block XXXX Info</text></g><g stroke-linecap="round" transform="translate(103.24957005879253 348.29616964750045) rotate(0 100.68071774123666 13.483305497197705)"><path d="M6.74 0 M6.74 0 C47.27 1.98, 83.87 1.42, 194.62 0 M6.74 0 C49.63 1.3, 92.67 0.2, 194.62 0 M194.62 0 C197.18 0.22, 200.66 3.81, 201.36 6.74 M194.62 0 C197.56 1.91, 200.31 2.72, 201.36 6.74 M201.36 6.74 C201.63 11.06, 202.05 16.42, 201.36 20.22 M201.36 6.74 C201.17 10.24, 200.94 12.09, 201.36 20.22 M201.36 20.22 C203.04 25.68, 199.38 26.7, 194.62 26.97 M201.36 20.22 C200.33 26.82, 198.3 25.19, 194.62 26.97 M194.62 26.97 C148.61 28.45, 103.04 26.48, 6.74 26.97 M194.62 26.97 C149.59 25.27, 106.75 25.23, 6.74 26.97 M6.74 26.97 C3.53 25.22, -1.92 25.12, 0 20.22 M6.74 26.97 C1.66 24.72, -2.18 22.79, 0 20.22 M0 20.22 C0.68 15.14, 0.1 12.22, 0 6.74 M0 20.22 C-0.05 16.75, 0.14 13.65, 0 6.74 M0 6.74 C-1.25 1.15, 0.8 0.4, 6.74 0 M0 6.74 C0.74 2.29, 0.52 1.76, 6.74 0" stroke="#1e1e1e" stroke-width="1" fill="none"></path></g><g transform="translate(112.59551243694193 353.72966245163144) rotate(0 63.815956115722656 10)"><text x="0" y="0" font-family="Virgil, Segoe UI Emoji" font-size="16px" fill="#1e1e1e" text-anchor="start" style="white-space: pre;" direction="ltr" dominant-baseline="text-before-edge">Block XXXX Info</text></g><g stroke-linecap="round" transform="translate(102.69094757950768 386.16951841160505) rotate(0 100.68071774123666 13.483305497197705)"><path d="M6.74 0 M6.74 0 C45.02 0.67, 86.79 0.35, 194.62 0 M6.74 0 C73.56 0.01, 139.57 -1.46, 194.62 0 M194.62 0 C200.54 -1.8, 203.26 0.37, 201.36 6.74 M194.62 0 C200.98 -0.73, 201.66 1.16, 201.36 6.74 M201.36 6.74 C201.58 9.98, 201.08 15.15, 201.36 20.22 M201.36 6.74 C201.48 11.79, 200.74 16.02, 201.36 20.22 M201.36 20.22 C201.88 25.05, 197.42 27.16, 194.62 26.97 M201.36 20.22 C200.96 24.22, 198.18 27.19, 194.62 26.97 M194.62 26.97 C139.98 30.44, 87.95 29.17, 6.74 26.97 M194.62 26.97 C145.65 25.84, 98.24 25.09, 6.74 26.97 M6.74 26.97 C2.06 25, 1.6 25.44, 0 20.22 M6.74 26.97 C0.82 25.61, 1.69 24.81, 0 20.22 M0 20.22 C-1.11 15.88, -0.33 8.18, 0 6.74 M0 20.22 C-0.47 15.58, 0.04 10.63, 0 6.74 M0 6.74 C-0.49 2.13, 2.9 -1.31, 6.74 0 M0 6.74 C-0.76 4.14, 4.45 -0.17, 6.74 0" stroke="#1e1e1e" stroke-width="1" fill="none"></path></g><g transform="translate(112.03688995765685 391.60301121573605) rotate(0 63.815956115722656 10)"><text x="0" y="0" font-family="Virgil, Segoe UI Emoji" font-size="16px" fill="#1e1e1e" text-anchor="start" style="white-space: pre;" direction="ltr" dominant-baseline="text-before-edge">Block XXXX Info</text></g><g stroke-linecap="round" transform="translate(84.30348069113404 504.8747030406312) rotate(0 121.45331431644456 99.27265433839483)"><path d="M32 0 M32 0 C88.41 -0.95, 145.87 -0.08, 210.91 0 M32 0 C94.18 0.39, 158.48 1.14, 210.91 0 M210.91 0 C232.96 0.4, 241.09 8.7, 242.91 32 M210.91 0 C234.25 -2.14, 241.21 8.97, 242.91 32 M242.91 32 C243.41 68.43, 243.43 109.37, 242.91 166.55 M242.91 32 C244.63 60.17, 244.35 88.09, 242.91 166.55 M242.91 166.55 C244.18 187.18, 233.83 196.71, 210.91 198.55 M242.91 166.55 C241.16 188.94, 233.66 197.09, 210.91 198.55 M210.91 198.55 C145.55 200.19, 85.18 198.85, 32 198.55 M210.91 198.55 C159.12 199.87, 107.51 200.55, 32 198.55 M32 198.55 C12.07 199.72, 1.65 188.78, 0 166.55 M32 198.55 C10.86 198.42, 1.24 187.95, 0 166.55 M0 166.55 C-0.46 122.52, 1.3 80.57, 0 32 M0 166.55 C-1.21 133.08, 0.31 97.86, 0 32 M0 32 C1.78 11.17, 11.61 1.87, 32 0 M0 32 C-2.08 9.48, 11.9 2.1, 32 0" stroke="#1e1e1e" stroke-width="1" fill="none"></path></g><g transform="translate(105.28425305918415 483.5152390293206) rotate(0 83.31195831298828 10)"><text x="0" y="0" font-family="Virgil, Segoe UI Emoji" font-size="16px" fill="#1e1e1e" text-anchor="start" style="white-space: pre;" direction="ltr" dominant-baseline="text-before-edge">Latest Transactions</text></g><g stroke-linecap="round" transform="translate(103.87409743731894 527.8535445761611) rotate(0 100.68071774123666 13.483305497197705)"><path d="M6.74 0 M6.74 0 C66.09 -0.3, 122.99 -2.79, 194.62 0 M6.74 0 C65.02 -1.38, 121.68 -2.56, 194.62 0 M194.62 0 C200.87 -1.86, 199.89 0.77, 201.36 6.74 M194.62 0 C198.77 -0.46, 199.24 3.13, 201.36 6.74 M201.36 6.74 C200.19 10.69, 201.12 13.02, 201.36 20.22 M201.36 6.74 C201.83 10.56, 201.93 14.23, 201.36 20.22 M201.36 20.22 C199.84 25.64, 200.35 25.7, 194.62 26.97 M201.36 20.22 C202.65 26.48, 200.22 25.04, 194.62 26.97 M194.62 26.97 C130.7 26.7, 68.66 27.03, 6.74 26.97 M194.62 26.97 C139.59 28.77, 83.98 28.63, 6.74 26.97 M6.74 26.97 C2.42 26.85, 1.08 24.78, 0 20.22 M6.74 26.97 C2.61 24.9, -0.82 22.81, 0 20.22 M0 20.22 C-0.62 17.5, -0.47 12.95, 0 6.74 M0 20.22 C0.52 15.35, 0.24 10.77, 0 6.74 M0 6.74 C-1.81 1.21, 3.32 1.82, 6.74 0 M0 6.74 C-1.32 1.64, 2.38 0.35, 6.74 0" stroke="#1e1e1e" stroke-width="1" fill="none"></path></g><g transform="translate(113.22003981546811 533.2870373802921) rotate(0 54.767967224121094 10)"><text x="0" y="0" font-family="Virgil, Segoe UI Emoji" font-size="16px" fill="#1e1e1e" text-anchor="start" style="white-space: pre;" direction="ltr" dominant-baseline="text-before-edge">TX XXXX Info</text></g><g stroke-linecap="round" transform="translate(104.79781213621129 563.8428501095686) rotate(0 100.68071774123666 13.483305497197705)"><path d="M6.74 0 M6.74 0 C69.96 2.35, 134.52 2.39, 194.62 0 M6.74 0 C67.72 0.92, 126.21 1.11, 194.62 0 M194.62 0 C198.81 -0.4, 199.52 3.02, 201.36 6.74 M194.62 0 C196.94 0.92, 202.2 0.16, 201.36 6.74 M201.36 6.74 C201.34 12.32, 201.01 18.04, 201.36 20.22 M201.36 6.74 C200.96 10.63, 201.88 13.47, 201.36 20.22 M201.36 20.22 C202.48 26.25, 200.07 25.29, 194.62 26.97 M201.36 20.22 C202.26 26.59, 198.48 26.76, 194.62 26.97 M194.62 26.97 C135.8 29, 78.41 28.91, 6.74 26.97 M194.62 26.97 C127.27 27.76, 60.3 27.84, 6.74 26.97 M6.74 26.97 C2.56 25.17, -0.71 23.06, 0 20.22 M6.74 26.97 C0.48 27.07, -1.14 23.67, 0 20.22 M0 20.22 C1.04 16.7, -0.33 12.76, 0 6.74 M0 20.22 C-0.67 15.49, 0.3 12.07, 0 6.74 M0 6.74 C-1.15 1.72, 2.36 0.31, 6.74 0 M0 6.74 C-1.83 2.77, 4.35 0.18, 6.74 0" stroke="#1e1e1e" stroke-width="1" fill="none"></path></g><g transform="translate(114.1437545143607 569.2763429136996) rotate(0 54.767967224121094 10)"><text x="0" y="0" font-family="Virgil, Segoe UI Emoji" font-size="16px" fill="#1e1e1e" text-anchor="start" style="white-space: pre;" direction="ltr" dominant-baseline="text-before-edge">TX XXXX Info</text></g><g stroke-linecap="round" transform="translate(105.75814066801593 601.0278588149292) rotate(0 100.68071774123666 13.483305497197705)"><path d="M6.74 0 M6.74 0 C69.85 -2.49, 130.19 1.08, 194.62 0 M6.74 0 C45.49 1.19, 83.62 1.77, 194.62 0 M194.62 0 C197.23 0.8, 202.09 0.43, 201.36 6.74 M194.62 0 C201.12 -0.51, 202.62 2.26, 201.36 6.74 M201.36 6.74 C200.86 12.22, 200.09 14.52, 201.36 20.22 M201.36 6.74 C201.82 11.92, 201.77 15.51, 201.36 20.22 M201.36 20.22 C202.15 26.35, 198.56 26.79, 194.62 26.97 M201.36 20.22 C201.65 26.46, 199.78 26.89, 194.62 26.97 M194.62 26.97 C125.42 29.93, 54.76 28.45, 6.74 26.97 M194.62 26.97 C139.46 26.13, 83.64 26.2, 6.74 26.97 M6.74 26.97 C0.71 27.06, -0.99 23.8, 0 20.22 M6.74 26.97 C2.73 26.17, -2.13 26.42, 0 20.22 M0 20.22 C0.38 16.02, 1.3 9.31, 0 6.74 M0 20.22 C-0.46 16.7, -0.03 13.63, 0 6.74 M0 6.74 C-1.59 2.7, 4.08 0.15, 6.74 0 M0 6.74 C-1.49 2.41, 1.27 -2.29, 6.74 0" stroke="#1e1e1e" stroke-width="1" fill="none"></path></g><g transform="translate(115.10408304616533 606.4613516190602) rotate(0 54.767967224121094 10)"><text x="0" y="0" font-family="Virgil, Segoe UI Emoji" font-size="16px" fill="#1e1e1e" text-anchor="start" style="white-space: pre;" direction="ltr" dominant-baseline="text-before-edge">TX XXXX Info</text></g><g stroke-linecap="round" transform="translate(105.19951818873108 638.8363487893041) rotate(0 100.68071774123666 13.483305497197705)"><path d="M6.74 0 M6.74 0 C44.21 -3.12, 83.92 -1.95, 194.62 0 M6.74 0 C58.41 -0.32, 112.33 -1.63, 194.62 0 M194.62 0 C200.86 -0.44, 202.45 2.26, 201.36 6.74 M194.62 0 C199.73 -0.54, 202.82 1.45, 201.36 6.74 M201.36 6.74 C201.86 12.69, 200.39 17.73, 201.36 20.22 M201.36 6.74 C201.69 12.37, 201.24 16.84, 201.36 20.22 M201.36 20.22 C201.62 26.23, 199.69 26.9, 194.62 26.97 M201.36 20.22 C203.08 26.21, 200.73 28.32, 194.62 26.97 M194.62 26.97 C122.62 28.2, 50.91 27.44, 6.74 26.97 M194.62 26.97 C154.33 25.45, 115.09 24.95, 6.74 26.97 M6.74 26.97 C2.67 26.27, -1.86 26.2, 0 20.22 M6.74 26.97 C3.61 26.32, 2.04 25.3, 0 20.22 M0 20.22 C-0.82 16.26, 1.1 10.08, 0 6.74 M0 20.22 C-0.55 16.69, 0.61 12.9, 0 6.74 M0 6.74 C-1.3 2.39, 1.4 -1.99, 6.74 0 M0 6.74 C0.88 2.92, 0.18 0.37, 6.74 0" stroke="#1e1e1e" stroke-width="1" fill="none"></path></g><g transform="translate(114.54546056688025 644.2698415934351) rotate(0 54.767967224121094 10)"><text x="0" y="0" font-family="Virgil, Segoe UI Emoji" font-size="16px" fill="#1e1e1e" text-anchor="start" style="white-space: pre;" direction="ltr" dominant-baseline="text-before-edge">TX XXXX Info</text></g><g transform="translate(430.57232676177136 510.7052391052448) rotate(0 131.10391235351562 30)"><text x="0" y="0" font-family="Virgil, Segoe UI Emoji" font-size="16px" fill="#1e1e1e" text-anchor="start" style="white-space: pre;" direction="ltr" dominant-baseline="text-before-edge">1. getMempoolTxids</text><text x="0" y="20" font-family="Virgil, Segoe UI Emoji" font-size="16px" fill="#1e1e1e" text-anchor="start" style="white-space: pre;" direction="ltr" dominant-baseline="text-before-edge">2. Query the TxIds for Details </text><text x="0" y="40" font-family="Virgil, Segoe UI Emoji" font-size="16px" fill="#1e1e1e" text-anchor="start" style="white-space: pre;" direction="ltr" dominant-baseline="text-before-edge">(value etc.) for additional info</text></g><g transform="translate(15.786951541500798 10) rotate(0 224.83984374999994 10)"><text x="0" y="0" font-family="Virgil, Segoe UI Emoji" font-size="16px" fill="#1e1e1e" text-anchor="start" style="white-space: pre;" direction="ltr" dominant-baseline="text-before-edge">To build a block explorer this would be a good strategy:</text></g><g transform="translate(422.1176696876498 483.9813255175799) rotate(0 106.55193328857422 10)"><text x="0" y="0" font-family="Virgil, Segoe UI Emoji" font-size="16px" fill="#1e1e1e" text-anchor="start" style="white-space: pre;" direction="ltr" dominant-baseline="text-before-edge">For latest TXs Component:</text></g><g stroke-linecap="round" transform="translate(30.377153363877483 136.52523757942419) rotate(0 177.28313285007363 24.59926516926093)"><path d="M12.3 0 M12.3 0 C143.98 0.84, 276.76 2.6, 342.27 0 M12.3 0 C81.61 1.89, 151.57 2.11, 342.27 0 M342.27 0 C349.01 0.45, 353.92 5.7, 354.57 12.3 M342.27 0 C348.4 0.37, 352.67 4.92, 354.57 12.3 M354.57 12.3 C353.3 17.76, 355.96 24.68, 354.57 36.9 M354.57 12.3 C354.21 19.09, 354.39 23.92, 354.57 36.9 M354.57 36.9 C356.49 44.63, 352.23 47.21, 342.27 49.2 M354.57 36.9 C356.73 45.13, 351.22 49.2, 342.27 49.2 M342.27 49.2 C236.2 48.44, 129.45 50.24, 12.3 49.2 M342.27 49.2 C254.42 48.09, 165.89 48.57, 12.3 49.2 M12.3 49.2 C6.07 47.54, 1.75 45.66, 0 36.9 M12.3 49.2 C5.53 50.22, -0.76 45.89, 0 36.9 M0 36.9 C-1.42 32.69, -0.93 23.69, 0 12.3 M0 36.9 C0.84 30.08, -0.31 23.89, 0 12.3 M0 12.3 C1.92 3.94, 3.54 1.24, 12.3 0 M0 12.3 C0.53 2.72, 6.09 1.67, 12.3 0" stroke="#1e1e1e" stroke-width="1" fill="none"></path></g><g stroke-linecap="round"><g transform="translate(322.34518435464065 159.95390620501502) rotate(0 21.48509669069466 -0.8013143598053318)"><path d="M0.7 -0.26 C7.88 -0.45, 36.06 -0.96, 43.36 -1.11 M-0.39 -1.45 C6.6 -1.53, 34.9 -0.32, 42.34 -0.15" stroke="#2f9e44" stroke-width="1" fill="none"></path></g><g transform="translate(322.34518435464065 159.95390620501502) rotate(0 21.48509669069466 -0.8013143598053318)"><path d="M21.23 6.38 C26.48 5.96, 33.05 1.71, 40.77 -2.1 M21.48 5.8 C29.75 4.32, 35.8 2.52, 42.98 0.23" stroke="#2f9e44" stroke-width="1" fill="none"></path></g><g transform="translate(322.34518435464065 159.95390620501502) rotate(0 21.48509669069466 -0.8013143598053318)"><path d="M21.72 -8.49 C26.82 -4.11, 33.22 -3.57, 40.77 -2.1 M21.97 -9.07 C30.19 -5.33, 36.08 -1.92, 42.98 0.23" stroke="#2f9e44" stroke-width="1" fill="none"></path></g></g><mask></mask><g transform="translate(47.49359719545089 110.23232111060837) rotate(0 47.35997009277344 10)"><text x="0" y="0" font-family="Virgil, Segoe UI Emoji" font-size="16px" fill="#1e1e1e" text-anchor="start" style="white-space: pre;" direction="ltr" dominant-baseline="text-before-edge">Search Field</text></g><g transform="translate(50.11305541292177 152.42400993929778) rotate(0 71.83195495605469 10)"><text x="0" y="0" font-family="Virgil, Segoe UI Emoji" font-size="16px" fill="#ced4da" text-anchor="start" style="white-space: pre;" direction="ltr" dominant-baseline="text-before-edge">BlockHash / TxID</text></g><g stroke-linecap="round" transform="translate(10 91.38404642080404) rotate(0 197.70311700591583 327.2650050195109)"><path d="M32 0 M32 0 C160.93 -1.43, 292.26 -2.07, 363.41 0 M363.41 0 C383.47 1.07, 396.03 9.66, 395.41 32 M395.41 32 C395.53 181.01, 395.07 330.67, 395.41 622.53 M395.41 622.53 C396.09 645.22, 384.3 653.67, 363.41 654.53 M363.41 654.53 C245.31 653.58, 129.12 653.81, 32 654.53 M32 654.53 C10.71 655.06, 1.95 644.97, 0 622.53 M0 622.53 C-0.83 436.13, -2.24 249.51, 0 32 M0 32 C-1.79 9.82, 12.11 0.19, 32 0" stroke="#2f9e44" stroke-width="1.5" fill="none" stroke-dasharray="8 9"></path></g><g stroke-linecap="round"><g transform="translate(269.3296385975997 290.0886882084935) rotate(0 12.457309380674758 -0.7664399940863404)"><path d="M0.81 -0.33 C4.91 -0.51, 20.95 -0.89, 25.14 -0.99 M-0.23 -1.55 C3.7 -1.62, 20 -0.21, 24.32 0.02" stroke="#2f9e44" stroke-width="1" fill="none"></path></g><g transform="translate(269.3296385975997 290.0886882084935) rotate(0 12.457309380674758 -0.7664399940863404)"><path d="M12.01 3.7 C15.43 3.28, 19.56 0.48, 23.92 0.58 M12.78 3.51 C16.6 2.03, 20.98 0.99, 23.96 0.17" stroke="#2f9e44" stroke-width="1" fill="none"></path></g><g transform="translate(269.3296385975997 290.0886882084935) rotate(0 12.457309380674758 -0.7664399940863404)"><path d="M12.61 -4.79 C15.83 -2.3, 19.76 -2.18, 23.92 0.58 M13.38 -4.98 C16.92 -3.59, 21.1 -1.74, 23.96 0.17" stroke="#2f9e44" stroke-width="1" fill="none"></path></g></g><mask></mask><g stroke-linecap="round"><g transform="translate(271.0590464515709 324.81721545827634) rotate(0 12.117783842587926 0.3885425851984792)"><path d="M0.84 -0.66 C5 -0.76, 20.51 -0.96, 24.41 -0.73 M-0.17 1.61 C3.82 1.66, 19.32 0.91, 23.21 0.42" stroke="#2f9e44" stroke-width="1" fill="none"></path></g><g transform="translate(271.0590464515709 324.81721545827634) rotate(0 12.117783842587926 0.3885425851984792)"><path d="M11.2 5.09 C14.05 3.53, 18.43 3.76, 24.21 -0.65 M12.17 5.4 C14.59 4.41, 18.04 2.85, 23.07 0.2" stroke="#2f9e44" stroke-width="1" fill="none"></path></g><g transform="translate(271.0590464515709 324.81721545827634) rotate(0 12.117783842587926 0.3885425851984792)"><path d="M10.53 -3.4 C13.54 -2.78, 18.09 -0.36, 24.21 -0.65 M11.49 -3.08 C14.09 -1.78, 17.73 -1.05, 23.07 0.2" stroke="#2f9e44" stroke-width="1" fill="none"></path></g></g><mask></mask><g stroke-linecap="round"><g transform="translate(269.5111398861312 361.5567777889895) rotate(0 12.229394426045985 -0.1275806374847832)"><path d="M0.92 0.74 C5.09 0.67, 20.47 -0.94, 24.51 -0.99 M-0.05 0.08 C3.96 0.18, 19.26 0.31, 23.36 0.02" stroke="#2f9e44" stroke-width="1" fill="none"></path></g><g transform="translate(269.5111398861312 361.5567777889895) rotate(0 12.229394426045985 -0.1275806374847832)"><path d="M12.55 4.19 C13.78 3.61, 18.27 1.07, 23.27 0.89 M11.64 4.84 C15.15 3.23, 19.93 1.69, 23.81 -0.41" stroke="#2f9e44" stroke-width="1" fill="none"></path></g><g transform="translate(269.5111398861312 361.5567777889895) rotate(0 12.229394426045985 -0.1275806374847832)"><path d="M12.33 -4.32 C13.57 -2.69, 18.12 -3.03, 23.27 0.89 M11.41 -3.68 C14.96 -2.46, 19.82 -1.17, 23.81 -0.41" stroke="#2f9e44" stroke-width="1" fill="none"></path></g></g><mask></mask><g stroke-linecap="round"><g transform="translate(270.287673013127 398.4150129563865) rotate(0 11.804339157247966 0.19732266463805104)"><path d="M0.22 0.73 C4.42 0.6, 20.55 -0.28, 24.73 -0.45 M-1.13 0.07 C2.95 0.08, 19.39 0.72, 23.7 0.85" stroke="#2f9e44" stroke-width="1" fill="none"></path></g><g transform="translate(270.287673013127 398.4150129563865) rotate(0 11.804339157247966 0.19732266463805104)"><path d="M12.63 4.53 C14.46 4.11, 17.7 1.88, 23.12 1.98 M11.81 5.08 C16.06 3.89, 19.47 1.54, 24.31 0.72" stroke="#2f9e44" stroke-width="1" fill="none"></path></g><g transform="translate(270.287673013127 398.4150129563865) rotate(0 11.804339157247966 0.19732266463805104)"><path d="M12.92 -3.98 C14.71 -2.19, 17.87 -2.2, 23.12 1.98 M12.1 -3.43 C16.2 -1.73, 19.51 -1.19, 24.31 0.72" stroke="#2f9e44" stroke-width="1" fill="none"></path></g></g><mask></mask><g stroke-linecap="round" transform="translate(653.8720252826881 587.7684706018977) rotate(0 197.70311700591583 196.8617073952488)"><path d="M32 0 M32 0 C152.5 0.56, 270.39 0.87, 363.41 0 M363.41 0 C384.08 -0.95, 395.53 8.85, 395.41 32 M395.41 32 C398.08 137.44, 397.42 245.01, 395.41 361.72 M395.41 361.72 C397.24 381.44, 383.62 392.07, 363.41 393.72 M363.41 393.72 C261.33 392.04, 158.45 393.73, 32 393.72 M32 393.72 C11.4 392.07, -0.2 381.5, 0 361.72 M0 361.72 C-0.19 266.86, -1.54 172.97, 0 32 M0 32 C1.15 12.43, 10.82 1.66, 32 0" stroke="#2f9e44" stroke-width="1.5" fill="none" stroke-dasharray="8 9"></path></g><g transform="translate(700.6903699780853 633.7865922138276) rotate(0 43.887977600097656 10)"><text x="0" y="0" font-family="Virgil, Segoe UI Emoji" font-size="16px" fill="#2f9e44" text-anchor="start" style="white-space: pre;" direction="ltr" dominant-baseline="text-before-edge">TX Details</text></g><g stroke-linecap="round" transform="translate(660.9894182677597 25.512568523151216) rotate(0 197.70311700591583 231.58334153972464)"><path d="M32 0 M32 0 C136.87 1.7, 242.85 2.81, 363.41 0 M363.41 0 C383.58 1.2, 394.74 11.61, 395.41 32 M395.41 32 C397.67 182.62, 397.11 332.94, 395.41 431.17 M395.41 431.17 C395.5 453.07, 384.03 465.06, 363.41 463.17 M363.41 463.17 C236.23 461.67, 110.41 462.08, 32 463.17 M32 463.17 C10.34 463.25, -0.35 450.57, 0 431.17 M0 431.17 C2.02 299.81, 2.38 169.67, 0 32 M0 32 C0.6 10.89, 11.17 -1.28, 32 0" stroke="#2f9e44" stroke-width="1.5" fill="none" stroke-dasharray="8 9"></path></g><g transform="translate(707.8077629631568 71.35542828398955) rotate(0 43.887977600097656 10)"><text x="0" y="0" font-family="Virgil, Segoe UI Emoji" font-size="16px" fill="#2f9e44" text-anchor="start" style="white-space: pre;" direction="ltr" dominant-baseline="text-before-edge">TX Details</text></g><g stroke-linecap="round"><g transform="translate(313.89401347965463 289.9221568291589) rotate(0 165.96644984436068 -80.08357499697387)"><path d="M-0.93 -1.07 C54.55 -27.6, 277.06 -132.66, 332.86 -159.1" stroke="#2f9e44" stroke-width="1.5" fill="none" stroke-dasharray="8 9"></path></g><g transform="translate(313.89401347965463 289.9221568291589) rotate(0 165.96644984436068 -80.08357499697387)"><path d="M309.98 -139.53 C317.14 -144.11, 322.48 -148.36, 332.17 -160.2" stroke="#2f9e44" stroke-width="1.5" fill="none"></path></g><g transform="translate(313.89401347965463 289.9221568291589) rotate(0 165.96644984436068 -80.08357499697387)"><path d="M301.21 -158.08 C311 -157.05, 318.96 -155.76, 332.17 -160.2" stroke="#2f9e44" stroke-width="1.5" fill="none"></path></g></g><mask></mask><g stroke-linecap="round"><g transform="translate(310.22716525938563 539.433907767192) rotate(0 163.47419298074908 34.45499646875771)"><path d="M0.04 0.1 C54.47 11.58, 272.67 57.47, 326.91 68.81" stroke="#2f9e44" stroke-width="1.5" fill="none" stroke-dasharray="8 9"></path></g><g transform="translate(310.22716525938563 539.433907767192) rotate(0 163.47419298074908 34.45499646875771)"><path d="M297.39 74.52 C307.17 70.78, 315.67 68.7, 325.85 68.95" stroke="#2f9e44" stroke-width="1.5" fill="none"></path></g><g transform="translate(310.22716525938563 539.433907767192) rotate(0 163.47419298074908 34.45499646875771)"><path d="M301.6 54.44 C310 57.22, 317.13 61.67, 325.85 68.95" stroke="#2f9e44" stroke-width="1.5" fill="none"></path></g></g><mask></mask><g transform="translate(753.6575371416702 282.25894148456285) rotate(0 98.08196258544922 22.5)"><text x="0" y="0" font-family="Virgil, Segoe UI Emoji" font-size="36px" fill="#2f9e44" text-anchor="start" style="white-space: pre;" direction="ltr" dominant-baseline="text-before-edge">Surprise us</text></g><g transform="translate(758.5405647049693 736.8919526760728) rotate(0 98.08196258544922 22.5)"><text x="0" y="0" font-family="Virgil, Segoe UI Emoji" font-size="36px" fill="#2f9e44" text-anchor="start" style="white-space: pre;" direction="ltr" dominant-baseline="text-before-edge">Surprise us</text></g><g transform="translate(35.16315361728232 53.40478920181077) rotate(0 43.087982177734375 10)"><text x="0" y="0" font-family="Virgil, Segoe UI Emoji" font-size="16px" fill="#2f9e44" text-anchor="start" style="white-space: pre;" direction="ltr" dominant-baseline="text-before-edge">HomeScreen</text></g></svg>